<?xml version="1.0" encoding="UTF-8"?>
<!DOCTYPE svg PUBLIC "-//W3C//DTD SVG 1.1//EN" "http://www.w3.org/Graphics/SVG/1.1/DTD/svg11.dtd">
<svg version="1.1" xmlns="http://www.w3.org/2000/svg" xmlns:xlink="http://www.w3.org/1999/xlink" x="0" y="0" width="105" height="60" viewBox="0, 0, 105, 60">
  <g id="Layer_1">
    <path d="M86.239,25.263 C85.764,24.77 84.979,24.77 84.502,25.264 C83.967,25.798 84.03,26.72 84.695,27.16 C85.101,27.43 85.643,27.429 86.047,27.16 C86.71,26.72 86.775,25.798 86.239,25.263 M84.651,21.085 C81.367,20.316 78.417,23.265 79.189,26.548 C79.579,28.22 80.908,29.547 82.58,29.939 C85.864,30.711 88.815,27.757 88.043,24.474 C87.649,22.802 86.322,21.476 84.651,21.085 M62.971,39.572 C60.831,38.78 60.004,38.939 57.268,38.976 C55.372,39.001 55.303,38.937 53.139,38.937 C52.47,38.937 52.223,42.141 54.643,42.806 C55.702,43.099 56.846,43.282 57.642,44.097 C57.996,44.456 58.194,44.999 57.378,44.999 L51.373,44.999 C50.321,44.999 49.329,45.025 48.526,44.344 C47.313,43.32 46.747,41.909 46.14,40.51 C45.511,39.055 44.831,37.623 44.034,36.252 C42.447,33.526 40.351,31.059 37.537,29.552 C34.025,27.668 28.064,26.735 23.344,30.358 C18.37,34.179 19.437,41.333 23.787,44.832 C25.505,46.215 27.745,46.794 29.947,46.664 C34.249,46.413 37.422,43.243 36.634,39.34 C36.372,38.033 35.609,36.797 34.462,36.124 C33.646,35.647 32.678,35.476 31.732,35.474 C30.716,35.472 29.636,35.682 28.905,36.389 C28.041,37.226 27.901,38.703 28.591,39.69 C28.974,40.235 29.597,40.696 29.491,41.407 C29.419,41.889 29.022,42.247 28.547,42.351 C27.74,42.531 27.001,42.073 26.458,41.511 C25.058,40.07 24.62,37.777 25.39,35.923 C26.396,33.494 29.195,32.159 31.822,32.245 C35.208,32.359 38.402,34.593 39.789,37.684 C41.179,40.777 40.762,44.572 38.849,47.371 C34.595,53.587 24.092,52.852 19.213,47.61 C16.153,44.322 14.488,41.13 14.722,35.188 C14.886,30.988 17.309,26.852 20.398,23.942 C25.431,19.199 32.059,15.956 38.803,14.556 C42.9,13.711 47.129,13.512 51.286,13.927 C54.953,14.292 58.599,14.964 62.123,16.055 C63.872,16.6 65.592,17.247 67.257,18.011 C68.725,18.685 70.65,19.42 71.793,20.584 C71.793,18.477 71.71,16.16 71.71,14.548 C71.71,13.932 72.357,13.516 72.911,13.779 C75.296,14.887 80.946,17.556 84.714,19.279 C89.764,21.585 90.12,27.029 90.297,31.855 C90.301,31.962 90.306,32.074 90.258,32.169 C90.098,32.5 89.247,32.411 88.935,32.415 C88.332,32.421 87.419,32.417 86.817,32.443 C85.611,32.497 84.437,32.474 83.232,32.415 C81.002,32.306 78.848,31.313 77.403,30.104 C77.261,29.984 76.794,29.851 76.575,30.079 C76.347,30.314 76.426,30.682 76.549,30.808 C77.376,31.643 78.273,32.183 79.317,32.723 C80.644,33.403 82.089,33.576 83.555,33.661 C85.125,33.754 86.706,33.731 88.274,33.57 C89.581,33.437 89.919,33.347 88.629,34.306 C87.495,35.148 86.179,35.754 84.845,36.203 C82.932,36.853 80.911,37.176 78.894,37.232 C77.671,37.265 76.448,37.201 75.235,37.044 C74.608,36.966 73.985,36.851 73.355,36.788 C72.844,36.736 72.314,36.641 71.804,36.75 C71.342,36.851 70.915,37.102 70.623,37.478 C70.224,37.998 70.086,39.429 70.317,40.05 C70.763,41.25 71.742,41.949 72.775,42.565 C73.896,43.231 75.369,43.457 75.655,44.732 C75.715,44.997 73.334,45.004 73.064,44.999 L69.895,44.999 C69.895,44.999 68.172,45.041 67.502,44.797 C67.479,44.791 67.463,44.78 67.441,44.771 C67.076,44.574 66.917,44.086 66.795,43.717 C66.618,43.195 66.307,42.674 65.931,42.134 C65.215,41.114 64.115,39.996 62.971,39.572 M86.966,25.509 C86.966,27.367 85.464,28.871 83.606,28.871 C81.75,28.871 80.247,27.367 80.247,25.509 C80.247,23.654 81.75,22.15 83.606,22.15 C85.464,22.15 86.966,23.654 86.966,25.509" fill="#30BA78"/>
  </g>
</svg>
